<svg width="300" height="360" viewBox="0 0 300 360" fill="none" xmlns="http://www.w3.org/2000/svg">
  <ellipse cx="145" cy="337" rx="90" ry="17" fill="#93C5FD"/>
  <path d="M216 48C216 74 193 95 164 95C136 95 113 74 113 48C113 22 136 1 164 1C193 1 216 22 216 48Z" fill="#F59E0B"/>
  <path d="M172 80C132 80 99 112 99 152V200H229V152C229 112 205 80 172 80Z" fill="#38BDF8"/>
  <rect x="122" y="195" width="36" height="103" rx="14" fill="#1E40AF"/>
  <rect x="172" y="195" width="36" height="103" rx="14" fill="#1E40AF"/>
  <rect x="114" y="287" width="48" height="19" rx="8" fill="#F97316"/>
  <rect x="168" y="287" width="48" height="19" rx="8" fill="#F97316"/>
  <path d="M212 133C221 120 239 117 252 126L282 146L270 162L241 143C235 139 226 141 221 147L212 133Z" fill="#38BDF8"/>
  <circle cx="286" cy="146" r="14" fill="#FCD34D"/>
  <path d="M102 136C93 124 77 121 63 129L34 147L46 163L74 146C81 142 90 144 95 150L102 136Z" fill="#38BDF8"/>
  <circle cx="30" cy="147" r="14" fill="#FCD34D"/>
  <circle cx="151" cy="45" r="8" fill="#111827"/>
  <circle cx="180" cy="45" r="8" fill="#111827"/>
  <path d="M149 62C156 71 174 71 182 62" stroke="#111827" stroke-width="5" stroke-linecap="round"/>
  <path d="M133 22C140 7 162 3 183 8C200 12 212 23 213 38C201 28 191 25 179 25C162 25 149 30 133 22Z" fill="#B45309"/>
  <path d="M187 5C198 6 208 12 214 20C215 11 211 2 204 0C198 0 191 2 187 5Z" fill="#7C2D12"/>
  <g>
    <ellipse cx="244" cy="38" rx="52" ry="31" fill="#FDE68A" stroke="#EA580C" stroke-width="4"/>
    <text x="244" y="46" text-anchor="middle" fill="#DC2626" font-family="Verdana" font-size="26" font-weight="700">Hi</text>
  </g>
</svg>
